<svg xmlns="http://www.w3.org/2000/svg" version="1.1" xmlns:xlink="http://www.w3.org/1999/xlink" xmlns:svgjs="http://svgjs.com/svgjs" width="1440" height="560" preserveAspectRatio="none" viewBox="0 0 1440 560">
    <g mask="url(&quot;#SvgjsMask1000&quot;)" fill="none">
        <rect width="1440" height="560" x="0" y="0" fill="#0e2a47"></rect>
        <path d="M16.11 -41.29L81.06 -3.79L81.06 71.21L16.11 108.71L-48.84 71.21L-48.84 -3.79zM16.11 183.71L81.06 221.21L81.06 296.21L16.11 333.71L-48.84 296.21L-48.84 221.21zM81.06 521.21L146.02 558.71L146.02 633.71L81.06 671.21L16.11 633.71L16.11 558.71zM146.02 -41.29L210.97 -3.79L210.97 71.21L146.02 108.71L81.06 71.21L81.06 -3.79zM146.02 183.71L210.97 221.21L210.97 296.21L146.02 333.71L81.06 296.21L81.06 221.21zM275.93 408.71L340.88 446.21L340.88 521.21L275.93 558.71L210.97 521.21L210.97 446.21zM470.79 71.21L535.74 108.71L535.74 183.71L470.79 221.21L405.83 183.71L405.83 108.71zM405.83 183.71L470.79 221.21L470.79 296.21L405.83 333.71L340.88 296.21L340.88 221.21zM600.69 296.21L665.65 333.71L665.65 408.71L600.69 446.21L535.74 408.71L535.74 333.71zM860.51 296.21L925.46 333.71L925.46 408.71L860.51 446.21L795.55 408.71L795.55 333.71zM925.46 -41.29L990.42 -3.79L990.42 71.21L925.46 108.71L860.51 71.21L860.51 -3.79zM1250.23 521.21L1315.18 558.71L1315.18 633.71L1250.23 671.21L1185.28 633.71L1185.28 558.71zM1380.14 296.21L1445.09 333.71L1445.09 408.71L1380.14 446.21L1315.18 408.71L1315.18 333.71zM1315.18 408.71L1380.14 446.21L1380.14 521.21L1315.18 558.71L1250.23 521.21L1250.23 446.21zM1445.09 -41.29L1510.05 -3.79L1510.05 71.21L1445.09 108.71L1380.14 71.21L1380.14 -3.79zM1510.05 71.21L1575 108.71L1575 183.71L1510.05 221.21L1445.09 183.71L1445.09 108.71zM1445.09 183.71L1510.05 221.21L1510.05 296.21L1445.09 333.71L1380.14 296.21L1380.14 221.21zM1445.09 408.71L1510.05 446.21L1510.05 521.21L1445.09 558.71L1380.14 521.21L1380.14 446.21z" stroke="#03305d" stroke-width="2"></path>
        <path d="M8.61 -41.29 a7.5 7.5 0 1 0 15 0 a7.5 7.5 0 1 0 -15 0zM73.56 -3.79 a7.5 7.5 0 1 0 15 0 a7.5 7.5 0 1 0 -15 0zM73.56 71.21 a7.5 7.5 0 1 0 15 0 a7.5 7.5 0 1 0 -15 0zM8.61 108.71 a7.5 7.5 0 1 0 15 0 a7.5 7.5 0 1 0 -15 0zM-56.34 71.21 a7.5 7.5 0 1 0 15 0 a7.5 7.5 0 1 0 -15 0zM-56.34 -3.79 a7.5 7.5 0 1 0 15 0 a7.5 7.5 0 1 0 -15 0zM8.61 183.71 a7.5 7.5 0 1 0 15 0 a7.5 7.5 0 1 0 -15 0zM73.56 221.21 a7.5 7.5 0 1 0 15 0 a7.5 7.5 0 1 0 -15 0zM73.56 296.21 a7.5 7.5 0 1 0 15 0 a7.5 7.5 0 1 0 -15 0zM8.61 333.71 a7.5 7.5 0 1 0 15 0 a7.5 7.5 0 1 0 -15 0zM-56.34 296.21 a7.5 7.5 0 1 0 15 0 a7.5 7.5 0 1 0 -15 0zM-56.34 221.21 a7.5 7.5 0 1 0 15 0 a7.5 7.5 0 1 0 -15 0zM73.56 521.21 a7.5 7.5 0 1 0 15 0 a7.5 7.5 0 1 0 -15 0zM138.52 558.71 a7.5 7.5 0 1 0 15 0 a7.5 7.5 0 1 0 -15 0zM138.52 633.71 a7.5 7.5 0 1 0 15 0 a7.5 7.5 0 1 0 -15 0zM73.56 671.21 a7.5 7.5 0 1 0 15 0 a7.5 7.5 0 1 0 -15 0zM8.61 633.71 a7.5 7.5 0 1 0 15 0 a7.5 7.5 0 1 0 -15 0zM8.61 558.71 a7.5 7.5 0 1 0 15 0 a7.5 7.5 0 1 0 -15 0zM138.52 -41.29 a7.5 7.5 0 1 0 15 0 a7.5 7.5 0 1 0 -15 0zM203.47 -3.79 a7.5 7.5 0 1 0 15 0 a7.5 7.5 0 1 0 -15 0zM203.47 71.21 a7.5 7.5 0 1 0 15 0 a7.5 7.5 0 1 0 -15 0zM138.52 108.71 a7.5 7.5 0 1 0 15 0 a7.5 7.5 0 1 0 -15 0zM138.52 183.71 a7.5 7.5 0 1 0 15 0 a7.5 7.5 0 1 0 -15 0zM203.47 221.21 a7.5 7.5 0 1 0 15 0 a7.5 7.5 0 1 0 -15 0zM203.47 296.21 a7.5 7.5 0 1 0 15 0 a7.5 7.5 0 1 0 -15 0zM138.52 333.71 a7.5 7.5 0 1 0 15 0 a7.5 7.5 0 1 0 -15 0zM268.43 408.71 a7.5 7.5 0 1 0 15 0 a7.5 7.5 0 1 0 -15 0zM333.38 446.21 a7.5 7.5 0 1 0 15 0 a7.5 7.5 0 1 0 -15 0zM333.38 521.21 a7.5 7.5 0 1 0 15 0 a7.5 7.5 0 1 0 -15 0zM268.43 558.71 a7.5 7.5 0 1 0 15 0 a7.5 7.5 0 1 0 -15 0zM203.47 521.21 a7.5 7.5 0 1 0 15 0 a7.5 7.5 0 1 0 -15 0zM203.47 446.21 a7.5 7.5 0 1 0 15 0 a7.5 7.5 0 1 0 -15 0zM463.29 71.21 a7.5 7.5 0 1 0 15 0 a7.5 7.5 0 1 0 -15 0zM528.24 108.71 a7.5 7.5 0 1 0 15 0 a7.5 7.5 0 1 0 -15 0zM528.24 183.71 a7.5 7.5 0 1 0 15 0 a7.5 7.5 0 1 0 -15 0zM463.29 221.21 a7.5 7.5 0 1 0 15 0 a7.5 7.5 0 1 0 -15 0zM398.33 183.71 a7.5 7.5 0 1 0 15 0 a7.5 7.5 0 1 0 -15 0zM398.33 108.71 a7.5 7.5 0 1 0 15 0 a7.5 7.5 0 1 0 -15 0zM463.29 296.21 a7.5 7.5 0 1 0 15 0 a7.5 7.5 0 1 0 -15 0zM398.33 333.71 a7.5 7.5 0 1 0 15 0 a7.5 7.5 0 1 0 -15 0zM333.38 296.21 a7.5 7.5 0 1 0 15 0 a7.5 7.5 0 1 0 -15 0zM333.38 221.21 a7.5 7.5 0 1 0 15 0 a7.5 7.5 0 1 0 -15 0zM593.19 296.21 a7.5 7.5 0 1 0 15 0 a7.5 7.5 0 1 0 -15 0zM658.15 333.71 a7.5 7.5 0 1 0 15 0 a7.5 7.5 0 1 0 -15 0zM658.15 408.71 a7.5 7.5 0 1 0 15 0 a7.5 7.5 0 1 0 -15 0zM593.19 446.21 a7.5 7.5 0 1 0 15 0 a7.5 7.5 0 1 0 -15 0zM528.24 408.71 a7.5 7.5 0 1 0 15 0 a7.5 7.5 0 1 0 -15 0zM528.24 333.71 a7.5 7.5 0 1 0 15 0 a7.5 7.5 0 1 0 -15 0zM853.01 296.21 a7.5 7.5 0 1 0 15 0 a7.5 7.5 0 1 0 -15 0zM917.96 333.71 a7.5 7.5 0 1 0 15 0 a7.5 7.5 0 1 0 -15 0zM917.96 408.71 a7.5 7.5 0 1 0 15 0 a7.5 7.5 0 1 0 -15 0zM853.01 446.21 a7.5 7.5 0 1 0 15 0 a7.5 7.5 0 1 0 -15 0zM788.05 408.71 a7.5 7.5 0 1 0 15 0 a7.5 7.5 0 1 0 -15 0zM788.05 333.71 a7.5 7.5 0 1 0 15 0 a7.5 7.5 0 1 0 -15 0zM917.96 -41.29 a7.5 7.5 0 1 0 15 0 a7.5 7.5 0 1 0 -15 0zM982.92 -3.79 a7.5 7.5 0 1 0 15 0 a7.5 7.5 0 1 0 -15 0zM982.92 71.21 a7.5 7.5 0 1 0 15 0 a7.5 7.5 0 1 0 -15 0zM917.96 108.71 a7.5 7.5 0 1 0 15 0 a7.5 7.5 0 1 0 -15 0zM853.01 71.21 a7.5 7.5 0 1 0 15 0 a7.5 7.5 0 1 0 -15 0zM853.01 -3.79 a7.5 7.5 0 1 0 15 0 a7.5 7.5 0 1 0 -15 0zM1242.73 521.21 a7.5 7.5 0 1 0 15 0 a7.5 7.5 0 1 0 -15 0zM1307.68 558.71 a7.5 7.5 0 1 0 15 0 a7.5 7.5 0 1 0 -15 0zM1307.68 633.71 a7.5 7.5 0 1 0 15 0 a7.5 7.5 0 1 0 -15 0zM1242.73 671.21 a7.5 7.5 0 1 0 15 0 a7.5 7.5 0 1 0 -15 0zM1177.78 633.71 a7.5 7.5 0 1 0 15 0 a7.5 7.5 0 1 0 -15 0zM1177.78 558.71 a7.5 7.5 0 1 0 15 0 a7.5 7.5 0 1 0 -15 0zM1372.64 296.21 a7.5 7.5 0 1 0 15 0 a7.5 7.5 0 1 0 -15 0zM1437.59 333.71 a7.5 7.5 0 1 0 15 0 a7.5 7.5 0 1 0 -15 0zM1437.59 408.71 a7.5 7.5 0 1 0 15 0 a7.5 7.5 0 1 0 -15 0zM1372.64 446.21 a7.5 7.5 0 1 0 15 0 a7.5 7.5 0 1 0 -15 0zM1307.68 408.71 a7.5 7.5 0 1 0 15 0 a7.5 7.5 0 1 0 -15 0zM1307.68 333.71 a7.5 7.5 0 1 0 15 0 a7.5 7.5 0 1 0 -15 0zM1372.64 521.21 a7.5 7.5 0 1 0 15 0 a7.5 7.5 0 1 0 -15 0zM1242.73 446.21 a7.5 7.5 0 1 0 15 0 a7.5 7.5 0 1 0 -15 0zM1437.59 -41.29 a7.5 7.5 0 1 0 15 0 a7.5 7.5 0 1 0 -15 0zM1502.55 -3.79 a7.5 7.5 0 1 0 15 0 a7.5 7.5 0 1 0 -15 0zM1502.55 71.21 a7.5 7.5 0 1 0 15 0 a7.5 7.5 0 1 0 -15 0zM1437.59 108.71 a7.5 7.5 0 1 0 15 0 a7.5 7.5 0 1 0 -15 0zM1372.64 71.21 a7.5 7.5 0 1 0 15 0 a7.5 7.5 0 1 0 -15 0zM1372.64 -3.79 a7.5 7.5 0 1 0 15 0 a7.5 7.5 0 1 0 -15 0zM1567.5 108.71 a7.5 7.5 0 1 0 15 0 a7.5 7.5 0 1 0 -15 0zM1567.5 183.71 a7.5 7.5 0 1 0 15 0 a7.5 7.5 0 1 0 -15 0zM1502.55 221.21 a7.5 7.5 0 1 0 15 0 a7.5 7.5 0 1 0 -15 0zM1437.59 183.71 a7.5 7.5 0 1 0 15 0 a7.5 7.5 0 1 0 -15 0zM1502.55 296.21 a7.5 7.5 0 1 0 15 0 a7.5 7.5 0 1 0 -15 0zM1372.64 221.21 a7.5 7.5 0 1 0 15 0 a7.5 7.5 0 1 0 -15 0zM1502.55 446.21 a7.5 7.5 0 1 0 15 0 a7.5 7.5 0 1 0 -15 0zM1502.55 521.21 a7.5 7.5 0 1 0 15 0 a7.5 7.5 0 1 0 -15 0zM1437.59 558.71 a7.5 7.5 0 1 0 15 0 a7.5 7.5 0 1 0 -15 0z" fill="#03305d"></path>
        <path d="M174.48 42.01L217.78 67.01L217.78 117.01L174.48 142.01L131.18 117.01L131.18 67.01zM174.48 192.01L217.78 217.01L217.78 267.01L174.48 292.01L131.18 267.01L131.18 217.01zM261.08 42.01L304.38 67.01L304.38 117.01L261.08 142.01L217.78 117.01L217.78 67.01zM217.78 117.01L261.08 142.01L261.08 192.01L217.78 217.01L174.48 192.01L174.48 142.01zM217.78 267.01L261.08 292.01L261.08 342.01L217.78 367.01L174.48 342.01L174.48 292.01zM347.69 492.01L390.99 517.01L390.99 567.01L347.69 592.01L304.38 567.01L304.38 517.01zM390.99 -32.99L434.29 -7.99L434.29 42.01L390.99 67.01L347.69 42.01L347.69 -7.99zM434.29 192.01L477.6 217.01L477.6 267.01L434.29 292.01L390.99 267.01L390.99 217.01zM390.99 417.01L434.29 442.01L434.29 492.01L390.99 517.01L347.69 492.01L347.69 442.01zM607.5 42.01L650.81 67.01L650.81 117.01L607.5 142.01L564.2 117.01L564.2 67.01zM737.41 417.01L780.71 442.01L780.71 492.01L737.41 517.01L694.11 492.01L694.11 442.01zM780.71 492.01L824.02 517.01L824.02 567.01L780.71 592.01L737.41 567.01L737.41 517.01zM867.32 342.01L910.62 367.01L910.62 417.01L867.32 442.01L824.02 417.01L824.02 367.01zM824.02 417.01L867.32 442.01L867.32 492.01L824.02 517.01L780.71 492.01L780.71 442.01zM953.92 42.01L997.23 67.01L997.23 117.01L953.92 142.01L910.62 117.01L910.62 67.01zM953.92 192.01L997.23 217.01L997.23 267.01L953.92 292.01L910.62 267.01L910.62 217.01zM953.92 342.01L997.23 367.01L997.23 417.01L953.92 442.01L910.62 417.01L910.62 367.01zM997.23 -32.99L1040.53 -7.99L1040.53 42.01L997.23 67.01L953.92 42.01L953.92 -7.99zM1083.83 117.01L1127.13 142.01L1127.13 192.01L1083.83 217.01L1040.53 192.01L1040.53 142.01zM1083.83 417.01L1127.13 442.01L1127.13 492.01L1083.83 517.01L1040.53 492.01L1040.53 442.01zM1170.43 267.01L1213.74 292.01L1213.74 342.01L1170.43 367.01L1127.13 342.01L1127.13 292.01zM1343.64 117.01L1386.95 142.01L1386.95 192.01L1343.64 217.01L1300.34 192.01L1300.34 142.01zM1386.95 342.01L1430.25 367.01L1430.25 417.01L1386.95 442.01L1343.64 417.01L1343.64 367.01zM1430.25 -32.99L1473.55 -7.99L1473.55 42.01L1430.25 67.01L1386.95 42.01L1386.95 -7.99z" stroke="rgba(6, 80, 156, 0.93)" stroke-width="2"></path>
    </g>
    <defs>
        <mask id="SvgjsMask1000">
            <rect width="1440" height="560" fill="#ffffff"></rect>
        </mask>
    </defs>
</svg>

